#!OML:ASF H:\ManfredETheater\Project 1\Capture day 1\Session 1\subject.ASF
:FULLY-SPECIFIED
:DEGREES
48
root 1.44621 16.0747 -3.80285 -6.04966 3.98031 -0.0640611
lowerback 4.35653 -0.593022 -3.05663
upperback 0.350692 -0.903947 1.62681
thorax -2.00856 -0.419172 3.44728
lowerneck -19.1314 -1.86984 -2.48961
upperneck 23.1911 -1.9647 0.406833
head 10.6553 -1.07104 0.274084
rclavicle 2.00524e-014 -4.77083e-015
rhumerus 25.804 3.76059 -43.3258
rradius 69.3867
rwrist 9.37882
rhand 6.49029 -21.5913
rfingers 7.12502
rthumb 31.7904 -48.8391
lclavicle 2.00524e-014 -4.77083e-015
lhumerus 25.553 -1.61189 60.0461
lradius 74.7661
lwrist -23.3749
lhand 14.3473 16.1751
lfingers 7.12502
lthumb 39.2369 41.6269
rfemur -15.5861 -15.7551 7.98663
rtibia 63.2507
rfoot -33.1992 0.860786
rtoes -12.5549
lfemur -17.881 5.47568 -10.6455
ltibia 63.7392
lfoot -34.4999 -3.54014
ltoes -12.9002
49
root 1.44592 16.0741 -3.80169 -6.04919 3.9809 -0.0822494
lowerback 4.36967 -0.594257 -3.03648
upperback 0.345297 -0.904909 1.62959
thorax -2.02167 -0.419473 3.43913
lowerneck -19.123 -1.87062 -2.49101
upperneck 23.1784 -1.96304 0.397526
head 10.649 -1.07156 0.271327
rclavicle 2.09221e-014 5.56597e-015
rhumerus 25.8039 3.76363 -43.3132
rradius 69.3886
rwrist 9.3893
rhand 6.49617 -21.6005
rfingers 7.12502
rthumb 31.796 -48.8471
lclavicle 2.09221e-014 5.56597e-015
lhumerus 25.5418 -1.60279 60.0282
lradius 74.7758
lwrist -23.3945
lhand 14.3408 16.1618
lfingers 7.12502
lthumb 39.2307 41.6154
rfemur -15.5836 -15.7465 8.01097
rtibia 63.2577
rfoot -33.2074 0.836548
rtoes -12.5757
lfemur -17.8724 5.47284 -10.6208
ltibia 63.7342
lfoot -34.5155 -3.54791
ltoes -12.8633
50
root 1.44553 16.0744 -3.80066 -6.04213 3.97057 -0.0341737
lowerback 4.36749 -0.587954 -3.07916
upperback 0.355017 -0.898884 1.6116
thorax -2.01056 -0.416529 3.4441
lowerneck -19.1416 -1.87077 -2.49572
upperneck 23.1647 -1.96377 0.407364
head 10.6477 -1.07098 0.275424
rclavicle -1.47846e-014 2.82274e-014
rhumerus 25.8492 3.74074 -43.3156
rradius 69.3841
rwrist 9.38716
rhand 6.46872 -21.6308
rfingers 7.12502
rthumb 31.7698 -48.8826
lclavicle -1.47846e-014 2.82274e-014
lhumerus 25.555 -1.58912 60.0091
lradius 74.7823
lwrist -23.4045
lhand 14.3392 16.1546
lfingers 7.12502
lthumb 39.2293 41.6085
rfemur -15.592 -15.7211 7.96425
rtibia 63.2687
rfoot -33.212 0.824155
rtoes -12.5559
lfemur -17.8631 5.47751 -10.6775
ltibia 63.7206
lfoot -34.5194 -3.50284
ltoes -12.9519
51
root 1.44438 16.0736 -3.79979 -6.04377 3.98704 -0.00525271
lowerback 4.38628 -0.596094 -3.11653
upperback 0.346456 -0.912326 1.60179
thorax -2.0284 -0.422474 3.45624
lowerneck -19.1325 -1.85811 -2.50233
upperneck 23.1644 -1.94534 0.411937
head 10.6457 -1.0626 0.28096
rclavicle 1.12313e-014 1.19271e-014
rhumerus 25.8579 3.75608 -43.3207
rradius 69.3797
rwrist 9.40633
rhand 6.47113 -21.6268
rfingers 7.12502
rthumb 31.7721 -48.8782
lclavicle 1.12313e-014 1.19271e-014
lhumerus 25.5344 -1.57744 59.9874
lradius 74.7874
lwrist -23.4187
lhand 14.3035 16.1445
lfingers 7.12502
lthumb 39.1956 41.6082
rfemur -15.5839 -15.7089 7.93655
rtibia 63.2808
rfoot -33.2281 0.805113
rtoes -12.5972
lfemur -17.8538 5.46079 -10.7059
ltibia 63.7124
lfoot -34.517 -3.51596
ltoes -12.8817
52
root 1.44335 16.0724 -3.79945 -6.03225 3.98459 0.000156595
lowerback 4.38552 -0.59481 -3.13251
upperback 0.353803 -0.911404 1.59906
thorax -2.02027 -0.422161 3.46229
lowerneck -19.1549 -1.86311 -2.48709
upperneck 23.1434 -1.95158 0.393977
head 10.6419 -1.0662 0.270933
rclavicle 8.57259e-015 -3.02153e-014
rhumerus 25.89 3.73124 -43.3178
rradius 69.3674
rwrist 9.43801
rhand 6.47076 -21.6198
rfingers 7.12502
rthumb 31.7718 -48.8713
lclavicle 8.57259e-015 -3.02153e-014
lhumerus 25.571 -1.55591 59.9658
lradius 74.7808
lwrist -23.4131
lhand 14.3115 16.1677
lfingers 7.12502
lthumb 39.2032 41.6292
rfemur -15.6045 -15.6937 7.94117
rtibia 63.2945
rfoot -33.2379 0.794204
rtoes -12.5346
lfemur -17.8567 5.45981 -10.7072
ltibia 63.7068
lfoot -34.5228 -3.5123
ltoes -12.8987
53
root 1.44208 16.0728 -3.79853 -6.02337 3.97442 0.0281838
lowerback 4.39168 -0.586224 -3.16731
upperback 0.349931 -0.902077 1.58848
thorax -2.02813 -0.417022 3.47059
lowerneck -19.1548 -1.86476 -2.48902
upperneck 23.1394 -1.95397 0.396584
head 10.6405 -1.06713 0.27185
rclavicle -1.69961e-014 4.21423e-014
rhumerus 25.8885 3.71791 -43.3176
rradius 69.3701
rwrist 9.46475
rhand 6.46087 -21.6217
rfingers 7.12502
rthumb 31.7624 -48.8751
lclavicle -1.69961e-014 4.21423e-014
lhumerus 25.5716 -1.55275 59.9541
lradius 74.789
lwrist -23.4333
lhand 14.3124 16.1268
lfingers 7.12502
lthumb 39.204 41.5881
rfemur -15.6176 -15.6726 7.92254
rtibia 63.3058
rfoot -33.2365 0.787199
rtoes -12.5219
lfemur -17.8552 5.47138 -10.7328
ltibia 63.7012
lfoot -34.5275 -3.51715
ltoes -12.8831
54
root 1.44089 16.0729 -3.79818 -6.01811 3.98694 0.0327468
lowerback 4.40427 -0.594966 -3.17949
upperback 0.346513 -0.914747 1.58657
thorax -2.0375 -0.42301 3.47649
lowerneck -19.1516 -1.85538 -2.50143
upperneck 23.1313 -1.94112 0.412291
head 10.6371 -1.06038 0.281497
rclavicle 2.55935e-015 -7.95139e-016
rhumerus 25.9215 3.71248 -43.3351
rradius 69.3617
rwrist 9.46527
rhand 6.47977 -21.6156
rfingers 7.12502
rthumb 31.7804 -48.8654
lclavicle 2.55935e-015 -7.95139e-016
lhumerus 25.5772 -1.52537 59.9346
lradius 74.7781
lwrist -23.4668
lhand 14.3286 16.1124
lfingers 7.12502
lthumb 39.2193 41.5693
rfemur -15.6219 -15.6684 7.9265
rtibia 63.3165
rfoot -33.2519 0.755138
rtoes -12.5748
lfemur -17.8627 5.46573 -10.7368
ltibia 63.6969
lfoot -34.5279 -3.49719
ltoes -12.9302
